<svg id="svg" xmlns="http://www.w3.org/2000/svg" xmlns:xlink="http://www.w3.org/1999/xlink" width="400" height="405.2532833020638" viewBox="0, 0, 400,405.2532833020638"><g id="svgg"><path id="path0" d="M199.027 71.295 C 192.895 72.554,189.321 76.981,189.311 83.330 L 189.306 86.922 146.717 110.732 L 104.128 134.541 101.556 133.223 C 99.268 132.051,98.666 131.906,96.115 131.913 C 82.978 131.951,79.095 149.760,91.033 155.225 L 93.058 156.153 93.050 162.973 C 93.045 166.724,92.795 186.257,92.495 206.379 C 92.195 226.501,91.946 244.334,91.941 246.009 L 91.932 249.053 89.526 250.238 C 80.256 254.801,80.514 267.998,89.957 272.321 C 93.747 274.056,98.513 273.570,101.937 271.099 C 102.936 270.379,103.932 269.700,104.152 269.590 C 104.372 269.481,123.031 280.403,145.616 293.862 L 186.679 318.333 186.679 321.737 C 186.679 334.749,203.635 338.949,209.677 327.432 C 210.563 325.745,210.684 325.087,210.689 321.924 L 210.694 318.333 253.284 294.528 L 295.874 270.723 298.452 272.036 C 308.633 277.219,319.854 266.574,315.117 256.227 C 313.480 252.653,309.102 249.183,306.191 249.154 C 305.675 249.148,305.047 249.013,304.795 248.853 C 304.359 248.576,305.190 158.036,305.658 154.764 C 305.785 153.881,306.270 153.324,307.781 152.325 C 317.461 145.933,313.674 130.984,302.109 129.935 C 299.338 129.684,296.407 130.518,293.831 132.290 C 291.466 133.917,297.971 137.384,252.301 110.160 L 213.321 86.923 213.321 83.518 C 213.321 75.560,206.531 69.755,199.027 71.295 M193.058 92.437 C 198.313 97.480,208.509 95.927,211.886 89.571 C 212.202 88.975,216.744 91.579,251.451 112.262 L 290.658 135.626 289.921 137.138 C 286.273 144.611,291.886 153.703,300.423 154.151 L 303.482 154.311 303.336 158.863 C 303.256 161.366,303.022 178.189,302.816 196.248 C 302.277 243.360,302.118 249.155,301.359 249.159 C 294.690 249.200,289.608 259.693,292.971 266.479 C 293.618 267.785,294.017 268.985,293.857 269.145 C 293.697 269.305,274.751 279.968,251.755 292.840 L 209.944 316.244 209.006 315.070 C 203.162 307.759,192.152 308.082,188.114 315.683 C 187.797 316.280,183.052 313.554,146.657 291.865 L 105.558 267.373 106.315 265.675 C 109.449 258.641,104.211 249.947,96.240 248.951 L 94.184 248.694 94.193 244.891 C 94.197 242.799,94.447 224.625,94.747 204.503 C 95.047 184.381,95.296 165.358,95.301 162.230 L 95.310 156.543 97.280 156.287 C 105.832 155.176,110.779 146.276,107.014 138.773 C 105.532 135.821,99.739 139.522,148.593 112.203 L 190.056 89.017 190.994 90.187 C 191.510 90.831,192.439 91.843,193.058 92.437 " stroke="none" fill="#fccc54" fill-rule="evenodd"></path><path id="path1" d="M222.702 164.342 C 209.309 165.838,201.804 173.586,202.343 185.361 C 202.791 195.132,207.229 199.524,221.415 204.234 C 231.496 207.581,234.986 209.880,236.202 213.973 C 240.490 228.414,218.254 234.524,208.344 221.628 L 207.519 220.555 203.576 223.862 C 198.998 227.703,199.018 227.338,203.185 230.859 C 217.814 243.219,243.097 237.734,246.490 221.464 C 249.146 208.726,243.972 201.696,227.908 196.217 C 216.927 192.472,214.248 190.788,212.921 186.794 C 208.888 174.651,226.848 167.591,237.352 177.190 L 239.433 179.093 242.935 175.658 L 246.437 172.224 244.402 170.364 C 239.504 165.887,230.713 163.448,222.702 164.342 M178.612 191.488 C 178.612 221.672,178.512 222.640,175.050 226.002 C 170.190 230.721,161.180 228.325,159.116 221.764 C 158.824 220.835,158.550 220.023,158.507 219.959 C 158.443 219.864,155.682 220.614,149.651 222.365 C 148.553 222.684,150.177 226.805,152.774 230.294 C 160.249 240.335,178.371 239.960,185.002 229.627 C 188.605 224.010,188.742 222.632,188.742 191.839 L 188.743 165.854 183.677 165.854 L 178.612 165.854 178.612 191.488 " stroke="none" fill="#040404" fill-rule="evenodd"></path><path id="path2" d="" stroke="none" fill="#bcd02c" fill-rule="evenodd"></path><path id="path3" d="" stroke="none" fill="#bcd02c" fill-rule="evenodd"></path><path id="path4" d="" stroke="none" fill="#bcd02c" fill-rule="evenodd"></path></g></svg>